{"title":"Arrow S02E10 HDTV 480p x264 AAC E-Subs [GWC].mp4","uid":9484876,"size":139229368,"categoryP":"video","categoryS":"tv_shows","magnet":"?xt=urn:btih:2c6b53f6d4f9c022e85f2c96f68977353ed14b5c&amp;dn=Arrow+S02E10+HDTV+480p+x264+AAC+E-Subs+%5BGWC%5D.mp4&amp;tr=udp%3A%2F%2Ftracker.openbittorrent.com%3A80&amp;tr=udp%3A%2F%2Fopen.demonii.com%3A1337&amp;tr=udp%3A%2F%2Ftracker.coppersurfer.tk%3A6969&amp;tr=udp%3A%2F%2Fexodus.desync.com%3A6969","seeders":1,"leechers":0,"uploader":"canc232","files":1,"time":1389868018,"description":"Arrow S02E10 HDTV x264 AAC E-Subs [GWC]\n\n\n\n\nSCREENS :\n &lt;a href=&quot;\nhttp://imageshack.com/a/img801/1811/zgfu.jpg&quot; rel=&quot;nofollow&quot; target=&quot;_NEW&quot;&gt;\nhttp://imageshack.com/a/img801/1811/zgfu.jpg&lt;/a&gt; &lt;a href=&quot;\nhttp://imageshack.com/a/img838/9780/6ymz.jpg&quot; rel=&quot;nofollow&quot; target=&quot;_NEW&quot;&gt;\nhttp://imageshack.com/a/img838/9780/6ymz.jpg&lt;/a&gt; &lt;a href=&quot;\nhttp://imageshack.com/a/img809/1131/rtkc.jpg&quot; rel=&quot;nofollow&quot; target=&quot;_NEW&quot;&gt;\nhttp://imageshack.com/a/img809/1131/rtkc.jpg&lt;/a&gt;\n\n\n\nMEDIA INFO:\nGeneral \nFormat : MPEG-4 \nFormat profile : Base Media \nFile size : 133 MiB \nDuration : 42mn 14s \nOverall bit rate : 439 Kbps  \n\nVideo \nFormat : AVC \nFormat profile : High@L3.0 \nFormat settings, CABAC : Yes \nFormat settings, ReFrames : 4 frames \nDuration : 42mn 5s \nBit rate : 378 Kbps \nMaximum bit rate : 1 965 Kbps \nWidth : 720 pixels \nHeight : 404 pixels \nDisplay aspect ratio : 16:9 \nFrame rate : 23.976 fps \nStream size : 114 MiB (86%) \nTitle : Arrow S02E10 HDTV x264 AAC E-Subs [GWC] \nWriting library : x264 core \n\nAudio \nFormat : AAC \nFormat profile : HE-AAC / LC \nDuration : 42mn 5s \nBit rate mode : Variable \nChannel(s) : 2 channels \nSampling rate : 48.0 KHz / 24.0 KHz \nStream size : 18.1 MiB (14%) \nLanguage : English \n\nText \nFormat : Timed Text \nDuration : 42mn 14s \nBit rate mode : Variable \nStream size : 25.2 KiB (0%) \nTitle : English Subtitle by elderman \nLanguage : English","torrent":{"xt":"urn:btih:2c6b53f6d4f9c022e85f2c96f68977353ed14b5c","amp;dn":"Arrow+S02E10+HDTV+480p+x264+AAC+E-Subs+%5BGWC%5D.mp4","amp;tr":["udp%3A%2F%2Ftracker.openbittorrent.com%3A80","udp%3A%2F%2Fopen.demonii.com%3A1337","udp%3A%2F%2Ftracker.coppersurfer.tk%3A6969","udp%3A%2F%2Fexodus.desync.com%3A6969"],"infoHash":"2c6b53f6d4f9c022e85f2c96f68977353ed14b5c","infoHashBuffer":{"type":"Buffer","data":[44,107,83,246,212,249,192,34,232,95,44,150,246,137,119,53,62,209,75,92]},"announce":[],"urlList":[]}}